<svg xmlns="http://www.w3.org/2000/svg" xmlns:xlink="http://www.w3.org/1999/xlink" width="28" height="29" viewBox="0 0 28 29">
  <defs>
    <linearGradient id="linear-gradient" x1="1" x2="0.107" y2="1" gradientUnits="objectBoundingBox">
      <stop offset="0" stop-color="#027bca"/>
      <stop offset="1" stop-color="#005d9a"/>
    </linearGradient>
  </defs>
  <g id="Group_271" data-name="Group 271" transform="translate(-38 -31)">
    <rect id="Rectangle_999" data-name="Rectangle 999" width="28" height="29" rx="8" transform="translate(38 31)" fill="url(#linear-gradient)"/>
    <g id="Group_270" data-name="Group 270" transform="translate(-10.95 -12)">
      <path id="FIRSTRULE" d="M2.34-27.3H7.755a4.365,4.365,0,0,1,1.135.144,2.57,2.57,0,0,1,.94.463,2.136,2.136,0,0,1,.633.848,3.235,3.235,0,0,1,.228,1.285,3.8,3.8,0,0,1-.157,1.155,2.461,2.461,0,0,1-.437.829,2.078,2.078,0,0,1-.665.535,3.277,3.277,0,0,1-.829.287l2.075,3.588H8.564L6.633-21.689H4.167v3.523H2.34Zm5.415,4.045a1.161,1.161,0,0,0,.783-.281,1.307,1.307,0,0,0,.326-1.024,1.109,1.109,0,0,0-.326-.913,1.214,1.214,0,0,0-.783-.261H4.167v2.479Z" transform="translate(60.294 80)" fill="#06b4e6"/>
      <path id="FIRSTRULE-2" data-name="FIRSTRULE" d="M1.95-22.994a5.822,5.822,0,0,1,.307-2.023A3.479,3.479,0,0,1,3.1-26.347a3.141,3.141,0,0,1,1.246-.731,5.078,5.078,0,0,1,1.52-.222H9.257v1.566H6.126a3.122,3.122,0,0,0-.842.111,1.88,1.88,0,0,0-.7.365,2.03,2.03,0,0,0-.515.679A2.955,2.955,0,0,0,3.8-23.516H9.257v1.566H3.777v3.784H1.95Z" transform="translate(52 80)" fill="#fff"/>
    </g>
  </g>
</svg>
