<svg xmlns="http://www.w3.org/2000/svg" width="202.801" height="49.049" viewBox="0 0 202.801 49.049">
  <g id="Group_1" data-name="Group 1" transform="translate(-85.703 -30.7)">
    <path id="FIRSTRULE" d="M2.34-27.3H17.225a12,12,0,0,1,3.12.395,7.063,7.063,0,0,1,2.582,1.273,5.872,5.872,0,0,1,1.74,2.331,8.893,8.893,0,0,1,.628,3.533,10.454,10.454,0,0,1-.43,3.174,6.765,6.765,0,0,1-1.2,2.278,5.713,5.713,0,0,1-1.829,1.471,9.006,9.006,0,0,1-2.278.789l5.7,9.863h-5.81L14.14-11.877H7.361v9.684H2.34ZM17.225-16.181a3.19,3.19,0,0,0,2.152-.771,3.592,3.592,0,0,0,.9-2.816,3.049,3.049,0,0,0-.9-2.511A3.338,3.338,0,0,0,17.225-23H7.361v6.815ZM28.272-27.3h5.021v14.705a8.707,8.707,0,0,0,.5,3.174,5.2,5.2,0,0,0,1.381,2.044,5.132,5.132,0,0,0,2.044,1.094,9.447,9.447,0,0,0,2.529.323,9.305,9.305,0,0,0,2.493-.323,5.132,5.132,0,0,0,2.044-1.094,5.357,5.357,0,0,0,1.4-2.044,8.435,8.435,0,0,0,.52-3.174V-27.3h5.021v14.705a13.081,13.081,0,0,1-.915,5.219A8.788,8.788,0,0,1,47.837-4,9.4,9.4,0,0,1,44.2-2.193a17.71,17.71,0,0,1-4.448.538,17.922,17.922,0,0,1-4.465-.538A9.391,9.391,0,0,1,31.625-4a8.632,8.632,0,0,1-2.457-3.372,13.313,13.313,0,0,1-.9-5.219Zm26.542,0h5.021v15.064a6.581,6.581,0,0,0,.5,2.744,4.512,4.512,0,0,0,1.381,1.757,5.545,5.545,0,0,0,2.062.95,10.627,10.627,0,0,0,2.511.287h6.456v4.3H66.291a18.912,18.912,0,0,1-4.448-.5A9.715,9.715,0,0,1,58.2-4.381a8.293,8.293,0,0,1-2.475-3.1,11.009,11.009,0,0,1-.915-4.752ZM85.3-2.193a12.914,12.914,0,0,1-4.179-.664A8.772,8.772,0,0,1,77.7-4.991a10.108,10.108,0,0,1-2.313-3.874,17.9,17.9,0,0,1-.843-5.882,17.9,17.9,0,0,1,.843-5.882A10.108,10.108,0,0,1,77.7-24.5a8.772,8.772,0,0,1,3.425-2.134A12.914,12.914,0,0,1,85.3-27.3h9.325V-23H86.018a7.871,7.871,0,0,0-2.224.3,5.219,5.219,0,0,0-1.883,1,5.777,5.777,0,0,0-1.435,1.865,8.847,8.847,0,0,0-.807,2.923H94.626v4.3H79.669a8.847,8.847,0,0,0,.807,2.923,5.777,5.777,0,0,0,1.435,1.865,5.219,5.219,0,0,0,1.883,1,7.871,7.871,0,0,0,2.224.3h8.608v4.3Z" transform="translate(193.389 58)" fill="#06b4e6"/>
    <path id="Telecom_Energy_Solutions" data-name="Telecom &amp; Energy Solutions" d="M3.389-8.965H-.06V-10.62H8.769v1.655H5.32v8H3.389Zm8.939,8a4.377,4.377,0,0,1-1.38-.214,2.8,2.8,0,0,1-1.131-.7,3.448,3.448,0,0,1-.766-1.276A5.8,5.8,0,0,1,8.769-5.1a5.8,5.8,0,0,1,.283-1.945,3.448,3.448,0,0,1,.766-1.276,2.8,2.8,0,0,1,1.131-.7,4.377,4.377,0,0,1,1.38-.214H15.4v1.559H12.562a2.475,2.475,0,0,0-.676.09,1.583,1.583,0,0,0-.572.3,1.717,1.717,0,0,0-.435.552,2.844,2.844,0,0,0-.262.855H15.4v1.573H10.617a2.857,2.857,0,0,0,.262.869,1.717,1.717,0,0,0,.435.552,1.5,1.5,0,0,0,.572.29,2.669,2.669,0,0,0,.676.083H15.4V-.964ZM17.06-12h1.793V-.964H17.06ZM23.654-.964a4.377,4.377,0,0,1-1.38-.214,2.8,2.8,0,0,1-1.131-.7,3.448,3.448,0,0,1-.766-1.276A5.8,5.8,0,0,1,20.095-5.1a5.8,5.8,0,0,1,.283-1.945,3.448,3.448,0,0,1,.766-1.276,2.8,2.8,0,0,1,1.131-.7,4.377,4.377,0,0,1,1.38-.214H26.73v1.559H23.888a2.475,2.475,0,0,0-.676.09,1.583,1.583,0,0,0-.572.3,1.717,1.717,0,0,0-.435.552,2.844,2.844,0,0,0-.262.855H26.73v1.573H21.943a2.857,2.857,0,0,0,.262.869,1.717,1.717,0,0,0,.435.552,1.5,1.5,0,0,0,.572.29,2.669,2.669,0,0,0,.676.083H26.73V-.964Zm7.877,0a4.377,4.377,0,0,1-1.38-.214,2.8,2.8,0,0,1-1.131-.7,3.448,3.448,0,0,1-.766-1.276A5.8,5.8,0,0,1,27.971-5.1a5.8,5.8,0,0,1,.283-1.945,3.448,3.448,0,0,1,.766-1.276,2.8,2.8,0,0,1,1.131-.7,4.377,4.377,0,0,1,1.38-.214h3.076v1.559H31.765a2.408,2.408,0,0,0-.779.124,1.5,1.5,0,0,0-.635.421,2.128,2.128,0,0,0-.428.793A4.138,4.138,0,0,0,29.765-5.1a4.138,4.138,0,0,0,.159,1.242,2.128,2.128,0,0,0,.428.793,1.5,1.5,0,0,0,.635.421,2.408,2.408,0,0,0,.779.124h2.842V-.964ZM35.71-5.1a5.69,5.69,0,0,1,.317-2.028,3.592,3.592,0,0,1,.862-1.345,3.215,3.215,0,0,1,1.276-.745,5.264,5.264,0,0,1,1.573-.228A5.216,5.216,0,0,1,41.3-9.22a3.274,3.274,0,0,1,1.283.745,3.616,3.616,0,0,1,.876,1.345A5.58,5.58,0,0,1,43.781-5.1a5.58,5.58,0,0,1-.324,2.028A3.616,3.616,0,0,1,42.58-1.73,3.274,3.274,0,0,1,41.3-.985a5.216,5.216,0,0,1-1.559.228,5.264,5.264,0,0,1-1.573-.228A3.216,3.216,0,0,1,36.89-1.73a3.592,3.592,0,0,1-.862-1.345A5.69,5.69,0,0,1,35.71-5.1Zm4.028,2.787a2.667,2.667,0,0,0,.862-.138,1.747,1.747,0,0,0,.71-.455,2.244,2.244,0,0,0,.483-.855A4.282,4.282,0,0,0,41.973-5.1a4.282,4.282,0,0,0-.179-1.338,2.244,2.244,0,0,0-.483-.855,1.747,1.747,0,0,0-.71-.455,2.667,2.667,0,0,0-.862-.138,2.667,2.667,0,0,0-.862.138,1.747,1.747,0,0,0-.71.455,2.244,2.244,0,0,0-.483.855A4.282,4.282,0,0,0,37.5-5.1a4.282,4.282,0,0,0,.179,1.338,2.244,2.244,0,0,0,.483.855,1.747,1.747,0,0,0,.71.455A2.667,2.667,0,0,0,39.739-2.316Zm5.284-6.925h7.615a4.152,4.152,0,0,1,1.166.159,2.429,2.429,0,0,1,.959.531,2.511,2.511,0,0,1,.648.973,4.05,4.05,0,0,1,.235,1.469V-.964H53.851V-6.11a2.019,2.019,0,0,0-.117-.738,1.347,1.347,0,0,0-.31-.483,1.141,1.141,0,0,0-.455-.269,1.869,1.869,0,0,0-.566-.083H51.23V-.964H49.437V-7.682H46.815V-.964H45.022Zm18.9,5.656a2.624,2.624,0,0,1,.352-1.442,2.289,2.289,0,0,1,.959-.835,2.14,2.14,0,0,1-.759-.821A2.785,2.785,0,0,1,64.2-8a2.832,2.832,0,0,1,.241-1.242,2.128,2.128,0,0,1,.669-.807,2.714,2.714,0,0,1,.986-.441A5.279,5.279,0,0,1,67.3-10.62h3.38v1.655H67.3a1.328,1.328,0,0,0-.828.262,1.075,1.075,0,0,0-.345.91,1.073,1.073,0,0,0,.345.917,1.353,1.353,0,0,0,.828.255H68.75v1.655H67.025a1.264,1.264,0,0,0-.828.283,1.214,1.214,0,0,0-.345.986,1.846,1.846,0,0,0,.09.621.963.963,0,0,0,.248.393.928.928,0,0,0,.372.207,1.651,1.651,0,0,0,.462.062h.621a2.866,2.866,0,0,0,.938-.152,1.888,1.888,0,0,0,.779-.517,2.615,2.615,0,0,0,.538-.979A5.578,5.578,0,0,0,70.129-5.6V-6.62H72.06V-.964H70.129V-2.026a3.3,3.3,0,0,1-1.393.979,4.986,4.986,0,0,1-1.711.29A5.026,5.026,0,0,1,65.818-.9a2.614,2.614,0,0,1-.986-.469,2.22,2.22,0,0,1-.669-.876A3.319,3.319,0,0,1,63.921-3.585ZM84.338-.964a4.967,4.967,0,0,1-1.607-.255,3.374,3.374,0,0,1-1.317-.821,3.888,3.888,0,0,1-.89-1.49A6.885,6.885,0,0,1,80.2-5.792a6.885,6.885,0,0,1,.324-2.262,3.888,3.888,0,0,1,.89-1.49,3.374,3.374,0,0,1,1.317-.821,4.967,4.967,0,0,1,1.607-.255h3.587v1.655H84.614a3.027,3.027,0,0,0-.855.117,2.007,2.007,0,0,0-.724.386,2.222,2.222,0,0,0-.552.717,3.4,3.4,0,0,0-.31,1.124h5.753v1.655H82.172a3.4,3.4,0,0,0,.31,1.124,2.222,2.222,0,0,0,.552.717,2.007,2.007,0,0,0,.724.386,3.027,3.027,0,0,0,.855.117h3.311V-.964Zm4.718-8.277h3.752a5.789,5.789,0,0,1,1.38.159,2.99,2.99,0,0,1,1.131.531,2.607,2.607,0,0,1,.766.973,3.431,3.431,0,0,1,.283,1.469V-.964H94.574V-6.11a1.551,1.551,0,0,0-.159-.738,1.355,1.355,0,0,0-.428-.483,1.8,1.8,0,0,0-.635-.269,3.523,3.523,0,0,0-.779-.083H90.849V-.964H89.056ZM101.03-.964a4.377,4.377,0,0,1-1.38-.214,2.8,2.8,0,0,1-1.131-.7,3.448,3.448,0,0,1-.766-1.276A5.8,5.8,0,0,1,97.471-5.1a5.8,5.8,0,0,1,.283-1.945,3.448,3.448,0,0,1,.766-1.276,2.8,2.8,0,0,1,1.131-.7,4.377,4.377,0,0,1,1.38-.214h3.076v1.559h-2.842a2.475,2.475,0,0,0-.676.09,1.583,1.583,0,0,0-.572.3,1.717,1.717,0,0,0-.435.552,2.844,2.844,0,0,0-.262.855h4.787v1.573H99.319a2.857,2.857,0,0,0,.262.869,1.717,1.717,0,0,0,.435.552,1.5,1.5,0,0,0,.572.29,2.669,2.669,0,0,0,.676.083h2.842V-.964Zm4.594-5.146a3.431,3.431,0,0,1,.283-1.469,2.607,2.607,0,0,1,.766-.973,2.99,2.99,0,0,1,1.131-.531,5.789,5.789,0,0,1,1.38-.159h2.649V-5.93h-1.793V-7.682h-.621a3.523,3.523,0,0,0-.779.083A1.8,1.8,0,0,0,108-7.33a1.355,1.355,0,0,0-.428.483,1.551,1.551,0,0,0-.159.738V-.964h-1.793ZM117.143.236a1.869,1.869,0,0,0,1.028-.269,1.019,1.019,0,0,0,.421-.931h-2.235a4.377,4.377,0,0,1-1.379-.214,2.8,2.8,0,0,1-1.131-.7,3.448,3.448,0,0,1-.766-1.276A5.8,5.8,0,0,1,112.8-5.1a5.8,5.8,0,0,1,.283-1.945,3.448,3.448,0,0,1,.766-1.276,2.8,2.8,0,0,1,1.131-.7,4.377,4.377,0,0,1,1.379-.214h4.028V-.964a3.446,3.446,0,0,1-.214,1.3,2.205,2.205,0,0,1-.586.848,2.276,2.276,0,0,1-.869.469,3.777,3.777,0,0,1-1.062.145h-4.3V.236Zm1.448-2.759V-7.682h-2a2.408,2.408,0,0,0-.779.124,1.5,1.5,0,0,0-.635.421,2.128,2.128,0,0,0-.428.793A4.138,4.138,0,0,0,114.59-5.1a4.138,4.138,0,0,0,.159,1.242,2.128,2.128,0,0,0,.428.793,1.5,1.5,0,0,0,.635.421,2.408,2.408,0,0,0,.779.124ZM125.585.236a1.869,1.869,0,0,0,1.028-.269,1.019,1.019,0,0,0,.421-.931H124.8a5.287,5.287,0,0,1-1.338-.159,2.575,2.575,0,0,1-1.042-.531,2.406,2.406,0,0,1-.669-.973,4.05,4.05,0,0,1-.235-1.469V-9.241h1.793V-4.1a1.463,1.463,0,0,0,.448,1.228,2.056,2.056,0,0,0,1.276.345h2V-9.241h1.793V-.964a3.445,3.445,0,0,1-.214,1.3,2.2,2.2,0,0,1-.586.848,2.276,2.276,0,0,1-.869.469A3.777,3.777,0,0,1,126.1,1.8h-4.028V.236Zm11.864-2.856h5.035a1.638,1.638,0,0,0,.924-.255,1.017,1.017,0,0,0,.386-.917,1.02,1.02,0,0,0-.386-.91,1.606,1.606,0,0,0-.924-.262h-2.345a4.835,4.835,0,0,1-1.228-.145,2.324,2.324,0,0,1-.938-.476,2.116,2.116,0,0,1-.593-.876,3.766,3.766,0,0,1-.207-1.331,3.811,3.811,0,0,1,.207-1.345,2.116,2.116,0,0,1,.593-.876,2.257,2.257,0,0,1,.938-.469,5.065,5.065,0,0,1,1.228-.138h5.311v1.655h-5.035a1.638,1.638,0,0,0-.924.255,1.017,1.017,0,0,0-.386.917,1.02,1.02,0,0,0,.386.91,1.606,1.606,0,0,0,.924.262h2.345a4.835,4.835,0,0,1,1.228.145,2.324,2.324,0,0,1,.938.476,2.116,2.116,0,0,1,.593.876,3.765,3.765,0,0,1,.207,1.331,3.8,3.8,0,0,1-.207,1.352,2.122,2.122,0,0,1-.593.869,2.258,2.258,0,0,1-.938.469,5.065,5.065,0,0,1-1.228.138h-5.311ZM146.76-5.1a5.69,5.69,0,0,1,.317-2.028,3.592,3.592,0,0,1,.862-1.345,3.216,3.216,0,0,1,1.276-.745,5.264,5.264,0,0,1,1.573-.228,5.216,5.216,0,0,1,1.559.228,3.274,3.274,0,0,1,1.283.745,3.616,3.616,0,0,1,.876,1.345,5.58,5.58,0,0,1,.324,2.028,5.58,5.58,0,0,1-.324,2.028,3.616,3.616,0,0,1-.876,1.345,3.274,3.274,0,0,1-1.283.745,5.216,5.216,0,0,1-1.559.228,5.264,5.264,0,0,1-1.573-.228,3.216,3.216,0,0,1-1.276-.745,3.592,3.592,0,0,1-.862-1.345A5.69,5.69,0,0,1,146.76-5.1Zm4.028,2.787a2.667,2.667,0,0,0,.862-.138,1.747,1.747,0,0,0,.71-.455,2.244,2.244,0,0,0,.483-.855,4.282,4.282,0,0,0,.179-1.338,4.282,4.282,0,0,0-.179-1.338,2.244,2.244,0,0,0-.483-.855,1.747,1.747,0,0,0-.71-.455,2.667,2.667,0,0,0-.862-.138,2.667,2.667,0,0,0-.862.138,1.747,1.747,0,0,0-.71.455,2.244,2.244,0,0,0-.483.855,4.282,4.282,0,0,0-.179,1.338,4.282,4.282,0,0,0,.179,1.338,2.244,2.244,0,0,0,.483.855,1.747,1.747,0,0,0,.71.455A2.667,2.667,0,0,0,150.789-2.316ZM156.072-12h1.793V-.964h-1.793Zm3.311,2.759h1.793V-4.1a1.551,1.551,0,0,0,.159.738,1.355,1.355,0,0,0,.428.483,1.8,1.8,0,0,0,.635.269,3.523,3.523,0,0,0,.779.083H164.9V-9.241h1.793V-.964h-3.752a5.789,5.789,0,0,1-1.38-.159,2.99,2.99,0,0,1-1.131-.531,2.607,2.607,0,0,1-.766-.973,3.431,3.431,0,0,1-.283-1.469Zm9.932,1.517h-1.38V-9.282h1.38V-11.31h1.793v2.028h1.931v1.559h-1.931v4.276a.765.765,0,0,0,.345.724,1.623,1.623,0,0,0,.828.2h.759V-.964h-.993a3.777,3.777,0,0,1-1.062-.145,2.276,2.276,0,0,1-.869-.469,2.205,2.205,0,0,1-.586-.848,3.445,3.445,0,0,1-.214-1.3Zm5.1-4.276h1.793v1.793h-1.793Zm0,2.759h1.793V-.964h-1.793ZM177.454-5.1a5.69,5.69,0,0,1,.317-2.028,3.592,3.592,0,0,1,.862-1.345,3.216,3.216,0,0,1,1.276-.745,5.264,5.264,0,0,1,1.573-.228,5.216,5.216,0,0,1,1.559.228,3.274,3.274,0,0,1,1.283.745A3.616,3.616,0,0,1,185.2-7.13a5.58,5.58,0,0,1,.324,2.028,5.58,5.58,0,0,1-.324,2.028,3.616,3.616,0,0,1-.876,1.345,3.274,3.274,0,0,1-1.283.745,5.216,5.216,0,0,1-1.559.228,5.264,5.264,0,0,1-1.573-.228,3.216,3.216,0,0,1-1.276-.745,3.592,3.592,0,0,1-.862-1.345A5.69,5.69,0,0,1,177.454-5.1Zm4.028,2.787a2.667,2.667,0,0,0,.862-.138,1.747,1.747,0,0,0,.71-.455,2.244,2.244,0,0,0,.483-.855,4.282,4.282,0,0,0,.179-1.338,4.282,4.282,0,0,0-.179-1.338,2.244,2.244,0,0,0-.483-.855,1.747,1.747,0,0,0-.71-.455,2.667,2.667,0,0,0-.862-.138,2.667,2.667,0,0,0-.862.138,1.747,1.747,0,0,0-.71.455,2.244,2.244,0,0,0-.483.855,4.281,4.281,0,0,0-.179,1.338,4.281,4.281,0,0,0,.179,1.338,2.244,2.244,0,0,0,.483.855,1.747,1.747,0,0,0,.71.455A2.667,2.667,0,0,0,181.482-2.316Zm5.283-6.925h3.752a5.789,5.789,0,0,1,1.379.159,2.99,2.99,0,0,1,1.131.531,2.607,2.607,0,0,1,.766.973,3.431,3.431,0,0,1,.283,1.469V-.964h-1.793V-6.11a1.551,1.551,0,0,0-.159-.738,1.355,1.355,0,0,0-.428-.483,1.8,1.8,0,0,0-.635-.269,3.523,3.523,0,0,0-.779-.083h-1.724V-.964h-1.793Zm8.856,6.718h4.332a1.483,1.483,0,0,0,.793-.2.738.738,0,0,0,.324-.683.765.765,0,0,0-.324-.717,1.524,1.524,0,0,0-.793-.193H197.94a4.18,4.18,0,0,1-1.055-.124,1.952,1.952,0,0,1-.807-.414,1.87,1.87,0,0,1-.51-.766,3.368,3.368,0,0,1-.179-1.179,3.264,3.264,0,0,1,.179-1.159,1.82,1.82,0,0,1,.51-.752,2,2,0,0,1,.807-.407,4.18,4.18,0,0,1,1.055-.124h4.566v1.559h-4.332a1.52,1.52,0,0,0-.8.2.733.733,0,0,0-.331.683.759.759,0,0,0,.331.717,1.562,1.562,0,0,0,.8.193h2.014a4.179,4.179,0,0,1,1.055.124,1.952,1.952,0,0,1,.807.414,1.87,1.87,0,0,1,.51.766,3.368,3.368,0,0,1,.179,1.179,3.264,3.264,0,0,1-.179,1.159,1.82,1.82,0,0,1-.51.752,2,2,0,0,1-.807.407,4.179,4.179,0,0,1-1.055.124h-4.566Z" transform="translate(85.763 77.954)" fill="#027bca"/>
    <path id="FIRSTRULE-2" data-name="FIRSTRULE" d="M1.95-15.464a16,16,0,0,1,.843-5.559,9.562,9.562,0,0,1,2.313-3.658A8.633,8.633,0,0,1,8.532-26.69a13.958,13.958,0,0,1,4.179-.61h9.325V-23H13.427a8.58,8.58,0,0,0-2.313.3,5.167,5.167,0,0,0-1.937,1A5.579,5.579,0,0,0,7.76-19.822,8.123,8.123,0,0,0,7.043-16.9H22.036v4.3H6.971v10.4H1.95ZM25.622-27.3h5.021V-2.193H25.622Zm9.325,0H49.833a12,12,0,0,1,3.12.395,7.063,7.063,0,0,1,2.582,1.273,5.872,5.872,0,0,1,1.74,2.331,8.893,8.893,0,0,1,.628,3.533,10.454,10.454,0,0,1-.43,3.174,6.765,6.765,0,0,1-1.2,2.278,5.713,5.713,0,0,1-1.829,1.471,9.006,9.006,0,0,1-2.278.789l5.7,9.863h-5.81l-5.308-9.684H39.969v9.684H34.948ZM49.833-16.181a3.19,3.19,0,0,0,2.152-.771,3.592,3.592,0,0,0,.9-2.816,3.049,3.049,0,0,0-.9-2.511A3.338,3.338,0,0,0,49.833-23H39.969v6.815ZM61.848-6.5H74.939a4.26,4.26,0,0,0,2.4-.664,2.645,2.645,0,0,0,1-2.385,2.652,2.652,0,0,0-1-2.367,4.177,4.177,0,0,0-2.4-.681h-6.1a12.572,12.572,0,0,1-3.192-.377,6.042,6.042,0,0,1-2.439-1.237,5.5,5.5,0,0,1-1.542-2.278,9.79,9.79,0,0,1-.538-3.461,9.909,9.909,0,0,1,.538-3.5,5.5,5.5,0,0,1,1.542-2.278,5.87,5.87,0,0,1,2.439-1.219,13.17,13.17,0,0,1,3.192-.359H82.651V-23H69.559a4.26,4.26,0,0,0-2.4.664,2.645,2.645,0,0,0-1,2.385,2.652,2.652,0,0,0,1,2.367,4.177,4.177,0,0,0,2.4.681h6.1a12.572,12.572,0,0,1,3.192.377,6.042,6.042,0,0,1,2.439,1.237,5.5,5.5,0,0,1,1.542,2.278,9.79,9.79,0,0,1,.538,3.461,9.877,9.877,0,0,1-.538,3.515,5.516,5.516,0,0,1-1.542,2.26,5.87,5.87,0,0,1-2.439,1.219,13.17,13.17,0,0,1-3.192.359H61.848ZM93.806-23H84.839v-4.3h22.955V-23H98.827v20.8H93.806Z" transform="translate(84.9 58)" fill="#027bca"/>
  </g>
</svg>
